<svg width="360.1" height="75.601" viewBox="0 0 360.1 75.601" xmlns="http://www.w3.org/2000/svg"><g id="svgGroup" stroke-linecap="round" fill-rule="evenodd" font-size="9pt" stroke="#ffffff" stroke-width="0.25mm" fill="#ffffff" style="stroke:#ffffff;stroke-width:0.25mm;fill:#ffffff"><path d="M 0 75 L 25.4 6.3 A 25.705 25.705 0 0 0 18.94 9.421 A 21.086 21.086 0 0 0 13.65 14.55 Q 9.5 20.3 9.5 28.8 Q 9.5 32.534 10.176 33.951 A 2.972 2.972 0 0 0 10.2 34 Q 10.871 35.342 10.899 35.673 A 0.321 0.321 0 0 1 10.9 35.7 Q 1.524 35.7 0.364 28.713 A 12.906 12.906 0 0 1 0.2 26.6 A 17.69 17.69 0 0 1 1.788 19.415 Q 2.946 16.787 4.95 14.15 Q 9.7 7.9 17.15 3.95 A 34.947 34.947 0 0 1 24.994 0.882 A 28.632 28.632 0 0 1 32 0 A 21.356 21.356 0 0 1 37.422 0.723 A 25.744 25.744 0 0 1 39.6 1.4 L 37.3 54.1 L 59.3 1.4 L 73.7 1.4 L 63.2 75 L 48.8 75 L 55.2 30.1 L 36.4 75 L 22.7 75 L 24.7 29.9 L 8 75 L 0 75 Z" id="0" vector-effect="non-scaling-stroke"/><path d="M 110.4 57.1 L 113.8 57.1 A 51.435 51.435 0 0 1 107.137 66.043 Q 102.4 71.045 96.913 73.429 A 26.345 26.345 0 0 1 86.3 75.6 A 22.853 22.853 0 0 1 81.701 75.166 Q 77.523 74.307 74.8 71.75 A 11.796 11.796 0 0 1 71.79 67 Q 71.111 65.086 70.855 62.723 A 28.096 28.096 0 0 1 70.7 59.7 Q 70.7 53.231 73.073 45.532 A 69.739 69.739 0 0 1 73.4 44.5 Q 76.1 36.2 82.2 30.15 A 20.641 20.641 0 0 1 95.683 24.172 A 27.62 27.62 0 0 1 97.7 24.1 A 18.339 18.339 0 0 1 101.851 24.527 Q 108.7 26.125 108.7 33.7 Q 108.7 39.3 105.5 44 A 23.524 23.524 0 0 1 97.329 51.37 A 27.397 27.397 0 0 1 97 51.55 Q 91.7 54.4 85.7 54.8 Q 85.527 57.388 85.504 58.488 A 14.663 14.663 0 0 0 85.5 58.8 A 22.107 22.107 0 0 0 85.603 61.021 Q 85.828 63.235 86.542 64.542 A 4.153 4.153 0 0 0 87.2 65.45 A 5.066 5.066 0 0 0 89.069 66.639 Q 90.548 67.2 92.7 67.2 A 19.48 19.48 0 0 0 97.276 66.687 A 14.942 14.942 0 0 0 101.95 64.7 Q 104.747 62.884 107.94 59.695 A 68.658 68.658 0 0 0 110.4 57.1 Z M 86.5 50 Q 90.2 49.8 93.55 47.4 Q 96.9 45 98.95 41.3 Q 101 37.6 101 33.5 Q 101 29.4 98.5 29.4 A 4.792 4.792 0 0 0 95.821 30.286 Q 93.606 31.763 91.45 35.7 A 45.223 45.223 0 0 0 87.628 45.166 A 55.223 55.223 0 0 0 86.5 50 Z" id="1" vector-effect="non-scaling-stroke"/><path d="M 142.9 29.6 L 142.9 30.3 L 144 25 L 158.4 25 L 151.2 59 Q 150.8 60.5 150.8 62.2 A 6.512 6.512 0 0 0 150.996 63.875 Q 151.568 66.019 153.81 66.412 A 6.322 6.322 0 0 0 154.9 66.5 A 5.619 5.619 0 0 0 158.746 64.978 A 8.486 8.486 0 0 0 159.75 63.9 A 15.698 15.698 0 0 0 161.485 61.111 Q 162.171 59.721 162.71 58.055 A 28.82 28.82 0 0 0 163 57.1 L 167.2 57.1 Q 163.5 67.9 158.05 71.75 Q 152.6 75.6 147.1 75.6 Q 142.9 75.6 140.35 73.25 Q 138.01 71.093 137.396 67.125 A 17.113 17.113 0 0 1 137.3 66.4 A 30.712 30.712 0 0 1 133.832 70.522 A 24.943 24.943 0 0 1 130.85 73.05 A 13.547 13.547 0 0 1 124.335 75.495 A 17.382 17.382 0 0 1 122.4 75.6 A 13.692 13.692 0 0 1 117.324 74.685 A 12.609 12.609 0 0 1 112.9 71.7 Q 110.035 68.76 109.33 63.319 A 29.775 29.775 0 0 1 109.1 59.5 A 41.743 41.743 0 0 1 110.238 50.018 A 53.508 53.508 0 0 1 112.05 43.95 A 36.675 36.675 0 0 1 118.106 33.131 A 34.348 34.348 0 0 1 120.85 30.15 Q 126.7 24.5 134.8 24.5 A 19.255 19.255 0 0 1 136.94 24.611 Q 139.229 24.868 140.625 25.72 A 5.271 5.271 0 0 1 140.9 25.9 A 5.04 5.04 0 0 1 142.119 27.077 A 4.208 4.208 0 0 1 142.9 29.6 Z M 137.2 57.1 L 142 34.5 A 3.6 3.6 0 0 0 141.609 32.895 A 5.189 5.189 0 0 0 141 31.95 A 3.156 3.156 0 0 0 139.373 30.891 Q 138.843 30.736 138.202 30.707 A 6.663 6.663 0 0 0 137.9 30.7 Q 134.466 30.7 131.621 34.128 A 17.036 17.036 0 0 0 130.7 35.35 A 32.611 32.611 0 0 0 127.543 41.182 A 43.367 43.367 0 0 0 125.7 46.55 Q 124.269 51.757 123.976 55.984 A 30.572 30.572 0 0 0 123.9 58.1 Q 123.9 62.834 125.2 64.341 A 2.401 2.401 0 0 0 125.35 64.5 Q 126.8 65.9 128.9 65.9 A 5.814 5.814 0 0 0 131.542 65.237 Q 132.375 64.816 133.203 64.129 A 12.146 12.146 0 0 0 133.85 63.55 A 10.833 10.833 0 0 0 136.213 60.142 A 15.414 15.414 0 0 0 137.2 57.1 Z" id="2" vector-effect="non-scaling-stroke"/><path d="M 163 57.1 L 173.7 7 L 188.5 5 L 177 59 Q 176.6 60.5 176.6 62.2 Q 176.6 63.36 176.92 64.133 A 2.476 2.476 0 0 0 177.55 65.05 A 2.759 2.759 0 0 0 178.416 65.56 Q 179.219 65.866 180.428 65.897 A 10.79 10.79 0 0 0 180.7 65.9 A 6.923 6.923 0 0 0 184.498 64.742 A 10.064 10.064 0 0 0 186.1 63.45 A 13.046 13.046 0 0 0 188.876 59.396 A 16.871 16.871 0 0 0 189.7 57.1 L 193.9 57.1 A 49.254 49.254 0 0 1 191.653 62.625 Q 188.569 68.983 184.4 71.75 A 25.497 25.497 0 0 1 179.614 74.278 A 18.299 18.299 0 0 1 172.9 75.6 A 12.469 12.469 0 0 1 169.369 75.124 A 9.634 9.634 0 0 1 165.15 72.6 A 9.385 9.385 0 0 1 162.984 68.99 Q 162.482 67.519 162.301 65.721 A 21.244 21.244 0 0 1 162.2 63.6 Q 162.2 61.214 162.929 57.462 A 66.029 66.029 0 0 1 163 57.1 Z" id="3" vector-effect="non-scaling-stroke"/><path d="M 189.7 57.1 L 195.7 29 L 192.4 29 L 193.2 25 L 196.5 25 L 199.5 11.2 L 214.3 9.2 L 210.9 25 L 216.9 25 L 216.1 29 L 210.1 29 L 203.7 59 Q 203.3 60.5 203.3 62.2 Q 203.3 63.36 203.62 64.133 A 2.476 2.476 0 0 0 204.25 65.05 A 2.759 2.759 0 0 0 205.116 65.56 Q 205.919 65.866 207.128 65.897 A 10.79 10.79 0 0 0 207.4 65.9 A 6.923 6.923 0 0 0 211.198 64.742 A 10.064 10.064 0 0 0 212.8 63.45 A 13.046 13.046 0 0 0 215.576 59.396 A 16.871 16.871 0 0 0 216.4 57.1 L 220.6 57.1 A 49.254 49.254 0 0 1 218.353 62.625 Q 215.269 68.983 211.1 71.75 A 25.497 25.497 0 0 1 206.314 74.278 A 18.299 18.299 0 0 1 199.6 75.6 A 12.469 12.469 0 0 1 196.069 75.124 A 9.634 9.634 0 0 1 191.85 72.6 A 9.385 9.385 0 0 1 189.684 68.99 Q 189.182 67.519 189.001 65.721 A 21.244 21.244 0 0 1 188.9 63.6 Q 188.9 61.214 189.629 57.462 A 66.029 66.029 0 0 1 189.7 57.1 Z" id="4" vector-effect="non-scaling-stroke"/><path d="M 216.4 57.1 L 223.2 25 L 237.6 25 L 230.4 59 Q 230 60.5 230 62.2 Q 230 63.36 230.32 64.133 A 2.476 2.476 0 0 0 230.95 65.05 A 2.759 2.759 0 0 0 231.816 65.56 Q 232.619 65.866 233.828 65.897 A 10.79 10.79 0 0 0 234.1 65.9 A 6.923 6.923 0 0 0 237.898 64.742 A 10.064 10.064 0 0 0 239.5 63.45 A 13.046 13.046 0 0 0 242.276 59.396 A 16.871 16.871 0 0 0 243.1 57.1 L 247.3 57.1 A 49.254 49.254 0 0 1 245.053 62.625 Q 241.969 68.983 237.8 71.75 A 25.497 25.497 0 0 1 233.014 74.278 A 18.299 18.299 0 0 1 226.3 75.6 A 12.469 12.469 0 0 1 222.769 75.124 A 9.634 9.634 0 0 1 218.55 72.6 A 9.385 9.385 0 0 1 216.384 68.99 Q 215.882 67.519 215.701 65.721 A 21.244 21.244 0 0 1 215.6 63.6 Q 215.6 61.214 216.329 57.462 A 66.029 66.029 0 0 1 216.4 57.1 Z M 229.492 18.768 A 7.792 7.792 0 0 0 233.1 19.6 A 9.433 9.433 0 0 0 233.113 19.6 A 7.787 7.787 0 0 0 238.75 17.3 A 9.076 9.076 0 0 0 238.859 17.192 A 7.527 7.527 0 0 0 241.1 11.7 A 9.208 9.208 0 0 0 241.099 11.597 A 7.695 7.695 0 0 0 238.75 6.05 A 9.397 9.397 0 0 0 238.676 5.977 A 7.693 7.693 0 0 0 233.1 3.7 A 9.171 9.171 0 0 0 232.946 3.701 A 7.525 7.525 0 0 0 227.5 6.05 A 9.359 9.359 0 0 0 227.491 6.059 A 7.787 7.787 0 0 0 225.2 11.7 A 9.402 9.402 0 0 0 225.201 11.803 A 7.609 7.609 0 0 0 227.5 17.3 A 7.931 7.931 0 0 0 229.492 18.768 Z" id="5" vector-effect="non-scaling-stroke"/><path d="M 285.2 42.9 L 278.4 75 L 264 75 L 271.3 40.5 Q 271.6 39.3 271.6 38 A 9.551 9.551 0 0 0 271.486 36.449 Q 271.032 33.705 268.776 33.604 A 3.914 3.914 0 0 0 268.6 33.6 A 5.699 5.699 0 0 0 264.683 35.156 A 8.476 8.476 0 0 0 263.75 36.15 A 15.053 15.053 0 0 0 262.041 38.851 Q 261.147 40.636 260.5 42.9 L 253.7 75 L 239.3 75 L 249.9 25 L 264.3 25 L 263.2 30.2 A 17.961 17.961 0 0 1 267.859 26.405 A 15.292 15.292 0 0 1 275.4 24.5 Q 284.2 24.5 285.7 33.1 A 22.773 22.773 0 0 1 289.396 28.64 A 14.656 14.656 0 0 1 299.6 24.6 A 15.036 15.036 0 0 1 302.994 24.962 Q 305.713 25.591 307.609 27.317 A 9.662 9.662 0 0 1 307.7 27.4 A 8.761 8.761 0 0 1 310.03 31.16 Q 310.7 33.206 310.7 35.9 Q 310.7 38.709 310.043 42.129 A 46.208 46.208 0 0 1 310 42.35 Q 309.3 45.9 308 51 A 175.423 175.423 0 0 0 306.632 56.681 A 160.665 160.665 0 0 0 306.55 57.05 A 40.513 40.513 0 0 0 306.221 58.691 Q 305.945 60.249 305.906 61.35 A 9.904 9.904 0 0 0 305.9 61.7 A 7.151 7.151 0 0 0 305.995 62.902 Q 306.192 64.057 306.8 64.8 A 2.646 2.646 0 0 0 307.883 65.571 Q 308.334 65.754 308.906 65.835 A 7.079 7.079 0 0 0 309.9 65.9 A 6.758 6.758 0 0 0 312.179 65.531 A 5.773 5.773 0 0 0 314.7 63.75 Q 316.5 61.6 318.3 57.1 L 322.5 57.1 A 62.897 62.897 0 0 1 320.453 62.432 Q 318.151 67.648 315.469 70.469 A 13.496 13.496 0 0 1 313.95 71.85 A 19.501 19.501 0 0 1 309.796 74.347 A 14.682 14.682 0 0 1 303.9 75.6 A 18.094 18.094 0 0 1 300.565 75.314 Q 296.954 74.635 294.95 72.35 Q 292.1 69.1 292.1 64.3 A 21.173 21.173 0 0 1 292.21 62.21 Q 292.334 60.958 292.6 59.55 Q 293.1 56.9 293.65 54.4 Q 294.183 51.976 294.388 51.244 A 7.505 7.505 0 0 1 294.4 51.2 Q 295.2 47.7 295.9 44.3 A 46.699 46.699 0 0 0 296.269 42.302 Q 296.6 40.244 296.6 38.8 A 10.701 10.701 0 0 0 296.463 37.002 Q 295.913 33.793 293.162 33.703 A 4.913 4.913 0 0 0 293 33.7 Q 290.4 33.7 288.4 36.25 A 15.743 15.743 0 0 0 286.701 38.981 Q 286.026 40.341 285.49 41.968 A 28.812 28.812 0 0 0 285.2 42.9 Z" id="6" vector-effect="non-scaling-stroke"/><path d="M 356.7 57.1 L 360.1 57.1 A 51.435 51.435 0 0 1 353.437 66.043 Q 348.7 71.045 343.213 73.429 A 26.345 26.345 0 0 1 332.6 75.6 A 22.853 22.853 0 0 1 328.001 75.166 Q 323.823 74.307 321.1 71.75 A 11.796 11.796 0 0 1 318.09 67 Q 317.411 65.086 317.155 62.723 A 28.096 28.096 0 0 1 317 59.7 Q 317 53.231 319.373 45.532 A 69.739 69.739 0 0 1 319.7 44.5 Q 322.4 36.2 328.5 30.15 A 20.641 20.641 0 0 1 341.983 24.172 A 27.62 27.62 0 0 1 344 24.1 A 18.339 18.339 0 0 1 348.151 24.527 Q 355 26.125 355 33.7 Q 355 39.3 351.8 44 A 23.524 23.524 0 0 1 343.629 51.37 A 27.397 27.397 0 0 1 343.3 51.55 Q 338 54.4 332 54.8 Q 331.827 57.388 331.804 58.488 A 14.663 14.663 0 0 0 331.8 58.8 A 22.107 22.107 0 0 0 331.903 61.021 Q 332.128 63.235 332.842 64.542 A 4.153 4.153 0 0 0 333.5 65.45 A 5.066 5.066 0 0 0 335.369 66.639 Q 336.848 67.2 339 67.2 A 19.48 19.48 0 0 0 343.576 66.687 A 14.942 14.942 0 0 0 348.25 64.7 Q 351.047 62.884 354.24 59.695 A 68.658 68.658 0 0 0 356.7 57.1 Z M 332.8 50 Q 336.5 49.8 339.85 47.4 Q 343.2 45 345.25 41.3 Q 347.3 37.6 347.3 33.5 Q 347.3 29.4 344.8 29.4 A 4.792 4.792 0 0 0 342.121 30.286 Q 339.906 31.763 337.75 35.7 A 45.223 45.223 0 0 0 333.928 45.166 A 55.223 55.223 0 0 0 332.8 50 Z" id="7" vector-effect="non-scaling-stroke"/></g></svg>